<svg xmlns="http://www.w3.org/2000/svg" viewBox="0 0 64 64">
  <defs>
    <linearGradient id="g" x1="0%" x2="100%" y1="0%" y2="100%">
      <stop offset="0%" stop-color="#163f3c" />
      <stop offset="100%" stop-color="#0f2f2d" />
    </linearGradient>
  </defs>
  <rect width="64" height="64" rx="18" fill="url(#g)" />
  <circle cx="47" cy="17" r="10" fill="#ff7b4a" opacity="0.95" />
  <path
    d="M19 39c0-7.3 5.4-12.5 13.1-12.5 4.1 0 7.2 1.4 9.6 4.2l-4.5 4.1c-1.3-1.5-2.8-2.2-4.8-2.2-3.8 0-6.4 2.6-6.4 6.4s2.6 6.4 6.4 6.4c2 0 3.5-.7 4.8-2.2l4.5 4.1c-2.4 2.8-5.5 4.2-9.6 4.2C24.4 51.5 19 46.3 19 39Z"
    fill="#fff7ef"
  />
</svg>
